<svg id="Layer_1" data-name="Layer 1" xmlns="http://www.w3.org/2000/svg" viewBox="0 0 100 100"><defs><style>.cls-1{fill:#e03400;}.cls-2{fill:#ce2e00;}.cls-3{fill:none;}.cls-4{fill:#fff;}.cls-5{fill:#dcdcdc;}.cls-6{fill:#aaa;}</style></defs><title>Red_Hat-Openshift4-Catalog_Icons-Serverless</title><circle class="cls-1" cx="50" cy="50" r="50"/><path class="cls-2" d="M85.36,14.64A50,50,0,0,1,14.64,85.36Z"/><path class="cls-3" d="M40.57,47.42a3.89,3.89,0,1,0,3.88,3.88A3.89,3.89,0,0,0,40.57,47.42Z"/><path class="cls-3" d="M21.42,47.42A3.89,3.89,0,1,0,25.3,51.3,3.89,3.89,0,0,0,21.42,47.42Z"/><path class="cls-4" d="M50.09,48.86h-.18a4.11,4.11,0,0,1-3.26-1.63,7.69,7.69,0,0,0-12.16,0,4.13,4.13,0,0,1-3.26,1.63H31a4.09,4.09,0,0,1-3.25-1.63A7.69,7.69,0,0,0,14,51.93h0V64.6a2.79,2.79,0,0,0,2.79,2.79h15.8L51.34,48.66A4,4,0,0,1,50.09,48.86Z"/><path class="cls-5" d="M78.05,44.25a7.65,7.65,0,0,0-5.85,3A4.1,4.1,0,0,1,69,48.86h-.19a4.13,4.13,0,0,1-3.26-1.63,7.69,7.69,0,0,0-12.16,0,4.16,4.16,0,0,1-2,1.43L32.61,67.39H83.19A2.79,2.79,0,0,0,86,64.6V52.07A7.77,7.77,0,0,0,78.05,44.25Z"/><path class="cls-6" d="M21.1,63h10a1.83,1.83,0,1,0,0-3.66h-10a1.83,1.83,0,0,0,0,3.66Z"/><circle class="cls-4" cx="40.57" cy="37.73" r="2.15"/><circle class="cls-4" cx="40.57" cy="28.23" r="1.35"/><circle class="cls-4" cx="59.72" cy="28.23" r="1.35"/><circle class="cls-4" cx="21.42" cy="37.73" r="2.15"/><circle class="cls-4" cx="50" cy="43.45" r="2.93"/><circle class="cls-4" cx="68.89" cy="43.45" r="2.93"/><circle class="cls-4" cx="31.09" cy="43.45" r="2.93"/><circle class="cls-6" cx="77.94" cy="54.31" r="2.15"/><circle class="cls-6" cx="68.91" cy="54.31" r="2.15"/><circle class="cls-4" cx="77.94" cy="37.73" r="2.15"/><circle class="cls-4" cx="59.72" cy="37.73" r="2.15"/><circle class="cls-4" cx="50" cy="33.1" r="3.01"/><circle class="cls-4" cx="31.09" cy="33.1" r="3.01"/><circle class="cls-4" cx="68.89" cy="33.1" r="3.01"/></svg>