<?xml version="1.0" encoding="UTF-8" standalone="no"?>
<svg
   version="1.1"
   width="700"
   height="900"
   viewBox="0 0 599.12539 770.30404"
   id="svg44"
   sodipodi:docname="workflow-timeouts-decorated.svg"
   inkscape:version="1.3 (1:1.3+202307231459+0e150ed6c4)"
   xmlns:inkscape="http://www.inkscape.org/namespaces/inkscape"
   xmlns:sodipodi="http://sodipodi.sourceforge.net/DTD/sodipodi-0.dtd"
   xmlns="http://www.w3.org/2000/svg"
   xmlns:svg="http://www.w3.org/2000/svg">
  <sodipodi:namedview
     id="namedview44"
     pagecolor="#ffffff"
     bordercolor="#000000"
     borderopacity="0.25"
     inkscape:showpageshadow="2"
     inkscape:pageopacity="0.0"
     inkscape:pagecheckerboard="0"
     inkscape:deskcolor="#d1d1d1"
     inkscape:zoom="0.70244863"
     inkscape:cx="414.26517"
     inkscape:cy="419.24774"
     inkscape:window-width="1452"
     inkscape:window-height="991"
     inkscape:window-x="26"
     inkscape:window-y="23"
     inkscape:window-maximized="0"
     inkscape:current-layer="layer2"
     showgrid="true">
    <inkscape:grid
       id="grid44"
       units="px"
       originx="0"
       originy="0"
       spacingx="1"
       spacingy="1"
       empcolor="#0099e5"
       empopacity="0.30196078"
       color="#0099e5"
       opacity="0.14901961"
       empspacing="5"
       dotted="false"
       gridanglex="30"
       gridanglez="30"
       visible="true" />
  </sodipodi:namedview>
  <defs
     id="defs1">
    <marker
       style="overflow:visible"
       id="Arrow1Lstart"
       refX="0"
       refY="0"
       orient="auto"
       inkscape:stockid="Arrow1Lstart"
       inkscape:isstock="true">
      <path
         transform="matrix(0.8,0,0,0.8,10,0)"
         style="fill:context-stroke;fill-rule:evenodd;stroke:context-stroke;stroke-width:1pt"
         d="M 0,0 5,-5 -12.5,0 5,5 Z"
         id="path4904" />
    </marker>
  </defs>
  <g
     inkscape:groupmode="layer"
     id="layer1"
     inkscape:label="Layer 1"
     transform="translate(0.5,0.5)">
    <g
       id="g44">
      <g
         id="g43">
        <g
           id="g3">
          <g
             id="g1">
            <path
               fill="none"
               stroke="#d3d3d3"
               paint-order="fill stroke markers"
               d="M 0,0 H 1200"
               stroke-miterlimit="10"
               stroke-opacity="0.8"
               stroke-dasharray="5"
               id="path1" />
          </g>
          <g
             id="g2">
            <path
               fill="none"
               stroke="#d3d3d3"
               paint-order="fill stroke markers"
               d="M 0,0 V 800"
               stroke-miterlimit="10"
               stroke-opacity="0.8"
               stroke-dasharray="5"
               id="path2" />
          </g>
        </g>
        <g
           id="_F780C83C-74E7-437D-B1F9-A1DE8102F291"
           transform="translate(150,50)">
          <g
             id="g4">
            <path
               fill="#ffffff"
               stroke="#cccccc"
               id="_F780C83C-74E7-437D-B1F9-A1DE8102F291?shapeType=BACKGROUND"
               paint-order="fill stroke markers"
               d="m 25,0 v 0 0 a 25,25 0 0 1 25,25 v 0 0 A 25,25 0 0 1 25,50 v 0 0 A 25,25 0 0 1 0,25 v 0 0 A 25,25 0 0 1 25,0 Z"
               stroke-miterlimit="10"
               stroke-width="2"
               stroke-dasharray="none" />
          </g>
          <g
             transform="translate(7,29)"
             id="g5">
            <text
               fill="#929292"
               stroke="none"
               font-family="'Open Sans'"
               font-size="16px"
               font-style="normal"
               font-weight="normal"
               text-decoration="normal"
               x="0"
               y="0"
               text-anchor="start"
               dominant-baseline="alphabetic"
               id="text4">Start</text>
          </g>
        </g>
        <g
           id="g18"
           transform="translate(50,229)">
          <g
             id="g6">
            <path
               fill="#ffffff"
               stroke="#cccccc"
               id="_AB5F5FE9-A611-4807-8BA7-C7948DE6D2D4?shapeType=BACKGROUND"
               paint-order="fill stroke markers"
               d="M 0,5 V 5 5 A 5,5 0 0 1 5,0 h 240 v 0 0 a 5,5 0 0 1 5,5 v 80 0 0 a 5,5 0 0 1 -5,5 H 5 v 0 0 A 5,5 0 0 1 0,85 Z"
               stroke-miterlimit="10"
               stroke-width="2"
               stroke-dasharray="none" />
          </g>
          <g
             transform="translate(45,46)"
             id="g10">
            <g
               id="g7">
              <path
                 fill="#0066cc"
                 stroke="#d5d5d5"
                 id="_AB5F5FE9-A611-4807-8BA7-C7948DE6D2D4"
                 paint-order="fill stroke markers"
                 d="m 0,-25 v 0 0 A 25,25 0 0 1 25,0 V 0 0 A 25,25 0 0 1 0,25 v 0 0 A 25,25 0 0 1 -25,0 V 0 0 A 25,25 0 0 1 0,-25 Z"
                 stroke-miterlimit="10"
                 stroke-dasharray="none" />
            </g>
            <g
               id="g9">
              <g
                 transform="matrix(0.35,0,0,0.35,-11,-11)"
                 id="g8">
                <path
                   fill="#ffffff"
                   stroke="#ffffff"
                   paint-order="fill stroke markers"
                   d="m 0,0 m 61.99,20.83 c 0.41,1.07 0.06,2.29 -0.79,3.07 l -5.41,4.93 c 0.14,1.04 0.21,2.1 0.21,3.17 0,1.07 -0.08,2.14 -0.21,3.17 l 5.41,4.92 c 0.85,0.79 1.2,2 0.79,3.08 -0.55,1.49 -1.21,2.92 -1.96,4.29 l -0.59,1.01 c -0.83,1.38 -1.75,2.68 -2.76,3.91 -0.75,0.89 -1.96,1.2 -3.06,0.85 l -6.96,-2.22 c -1.68,1.29 -3.64,2.36 -5.5,3.19 l -1.56,7.14 c -0.25,1.12 -1.12,1.92 -2.28,2.22 -1.72,0.29 -3.5,0.44 -5.42,0.44 -1.7,0 -3.48,-0.15 -5.2,-0.44 -1.15,-0.3 -2.02,-1.1 -2.27,-2.22 L 22.87,54.2 c -1.98,-0.83 -3.83,-1.9 -5.5,-3.19 l -6.96,2.22 C 9.31,53.58 8.09,53.27 7.35,52.38 6.34,51.14 5.41,49.84 4.59,48.47 L 4,47.46 C 3.24,46.1 2.58,44.66 2.03,43.17 1.63,42.09 1.97,40.88 2.82,40.09 L 8.23,35.17 C 8.09,34.13 8.02,33.07 8.02,32 c 0,-1.07 0.07,-2.14 0.21,-3.17 L 2.82,23.9 C 1.96,23.11 1.62,21.91 2.03,20.83 2.58,19.34 3.25,17.9 4,16.54 l 0.58,-1.01 c 0.83,-1.38 1.75,-2.67 2.77,-3.91 0.74,-0.89 1.96,-1.2 3.06,-0.85 l 6.96,2.22 c 1.67,-1.29 3.52,-2.37 5.5,-3.18 L 24.43,2.67 C 24.68,1.54 25.55,0.63 26.7,0.44 28.43,0.15 30.2,0 32.01,0 c 1.81,0 3.59,0.15 5.31,0.44 1.15,0.19 2.03,1.09 2.28,2.23 l 1.56,7.14 c 1.86,0.82 3.82,1.89 5.5,3.18 l 6.96,-2.22 c 1.1,-0.35 2.31,-0.04 3.06,0.85 1.01,1.23 1.94,2.53 2.76,3.91 l 0.59,1.01 c 0.75,1.36 1.41,2.8 1.96,4.29 z M 0,0 m 32,42 c 5.53,0 10,-4.47 10,-10.11 0,-5.64 -4.47,-10 -10,-10 -5.53,0 -10,4.59 -10,10 C 22,37.3 26.48,42 32,42 Z"
                   stroke-miterlimit="10"
                   stroke-width="2"
                   stroke-dasharray="none"
                   id="path7" />
              </g>
            </g>
          </g>
          <g
             transform="translate(224,6)"
             id="g13">
            <g
               id="g11">
              <path
                 fill="#ffffff"
                 stroke="#ffffff"
                 paint-order="fill stroke markers"
                 d="m 9,0 h 2 v 0 a 9,9 0 0 1 9,9 v 2 0 a 9,9 0 0 1 -9,9 H 9 v 0 A 9,9 0 0 1 0,11 V 9 9 A 9,9 0 0 1 9,0 Z"
                 fill-opacity="0.00100002"
                 stroke-miterlimit="10"
                 stroke-opacity="0.00100002"
                 stroke-dasharray="none"
                 id="path10" />
            </g>
            <g
               transform="scale(2)"
               id="g12">
              <path
                 fill="#cccccc"
                 stroke="none"
                 paint-order="stroke fill markers"
                 d="m 0,0 m 2.175,3.286 c -0.432,0 -0.781,0.351 -0.781,0.781 0,0.431 0.351,0.782 0.781,0.782 0.43,0 0.781,-0.351 0.781,-0.782 0,-0.43 -0.35,-0.781 -0.781,-0.781 z M 0,0 m 2.175,4.38 c -0.172,0 -0.312,-0.141 -0.312,-0.313 0,-0.171 0.14,-0.312 0.312,-0.312 0.171,0 0.312,0.141 0.312,0.312 0,0.172 -0.141,0.313 -0.312,0.313 z M 0,0 m 1.875,0.312 c -0.69,0 -1.25,0.561 -1.25,1.251 0,0.691 0.56,1.25 1.25,1.25 0.69,0 1.25,-0.56 1.25,-1.25 0,-0.689 -0.56,-1.251 -1.25,-1.251 z M 0,0 m 1.875,2.032 c -0.259,0 -0.469,-0.21 -0.469,-0.469 0,-0.259 0.21,-0.469 0.469,-0.469 0.259,0 0.469,0.21 0.469,0.469 0,0.259 -0.21,0.469 -0.469,0.469 z M 0,0 M 8.641,2.285 7.704,2.208 C 7.665,2.085 7.683,2.121 7.626,2 7.75,1.829 8.078,1.493 8.205,1.321 8.222,1.296 8.235,1.269 8.235,1.238 8.235,1.115 7.716,0.64 7.603,0.535 7.577,0.513 7.546,0.5 7.511,0.5 7.48,0.5 7.449,0.509 7.423,0.53 L 6.772,1.1 C 6.666,1.047 6.65,1.047 6.535,1.012 l -0.06,-0.9 C 6.47,0.048 6.408,0 6.346,0 H 5.53 C 5.469,0 5.416,0.044 5.399,0.106 5.343,0.32 5.371,0.796 5.348,1.017 5.23,1.056 5.241,1.065 5.129,1.122 L 4.452,0.528 C 4.427,0.511 4.395,0.498 4.36,0.498 4.233,0.498 3.74,1.031 3.654,1.149 3.631,1.174 3.623,1.205 3.623,1.235 3.623,1.266 3.637,1.297 3.654,1.322 3.793,1.489 4.098,1.773 4.22,1.949 4.164,2.059 4.173,2.109 4.137,2.226 L 3.227,2.269 C 3.17,2.278 3.126,2.345 3.126,2.401 L 3.125,3.213 c 0,0.063 0.044,0.119 0.105,0.129 l 0.92,0.06 C 4.189,3.524 4.18,3.485 4.242,3.605 4.115,3.776 3.793,4.143 3.666,4.309 3.648,4.334 3.636,4.361 3.636,4.392 3.636,4.52 4.155,4.99 4.269,5.094 4.294,5.117 4.325,5.129 4.36,5.129 4.39,5.129 4.427,5.121 4.447,5.1 L 5.094,4.495 C 5.2,4.548 5.209,4.543 5.325,4.578 l 0.072,0.937 c 0.009,0.062 0.071,0.11 0.131,0.11 H 6.345 C 6.406,5.625 6.459,5.581 6.475,5.52 6.532,5.304 6.491,4.804 6.513,4.577 6.631,4.542 6.62,4.536 6.732,4.479 L 7.423,5.095 C 7.448,5.113 7.479,5.126 7.514,5.126 7.642,5.126 8.135,4.589 8.221,4.472 8.244,4.449 8.252,4.419 8.252,4.388 8.252,4.353 8.238,4.327 8.221,4.302 8.082,4.135 7.714,3.824 7.591,3.649 7.647,3.54 7.637,3.542 7.672,3.426 L 8.648,3.353 C 8.705,3.345 8.749,3.278 8.749,3.222 V 2.41 C 8.747,2.355 8.703,2.297 8.641,2.285 Z M 0,0 m 5.92,3.919 c -0.603,0 -1.098,-0.492 -1.098,-1.1 0,-0.607 0.492,-1.099 1.098,-1.099 0.608,0 1.1,0.492 1.1,1.099 0,0.608 -0.492,1.1 -1.1,1.1 z M 0,0 m 8.435,6.25 c -0.494,-0.493 -0.938,0 -0.938,0 L 5.622,8.125 H 3.728 c 0,0 -0.313,0 -0.313,-0.312 C 3.415,7.5 3.747,7.5 3.747,7.5 H 5.31 c 0,0 0.312,0 0.312,-0.313 C 5.622,6.875 5.31,6.875 5.31,6.875 L 1.882,6.87 C 1.683,6.865 1.305,6.905 0.944,7.304 L 0,8.301 1.872,10 2.497,9.374 h 3.62 C 6.2,9.374 6.28,9.342 6.339,9.283 L 6.872,8.75 8.435,7.187 c 0,0 0.492,-0.444 0,-0.937 z"
                 id="path11" />
            </g>
          </g>
          <g
             transform="translate(117,70)"
             id="g16">
            <g
               id="g14">
              <path
                 fill="#ffffff"
                 stroke="#ffffff"
                 paint-order="fill stroke markers"
                 d="m 9,0 h 2 v 0 a 9,9 0 0 1 9,9 v 2 0 a 9,9 0 0 1 -9,9 H 9 v 0 A 9,9 0 0 1 0,11 V 9 9 A 9,9 0 0 1 9,0 Z"
                 fill-opacity="0.00100002"
                 stroke-miterlimit="10"
                 stroke-opacity="0.00100002"
                 stroke-dasharray="none"
                 id="path13" />
            </g>
            <g
               id="g15">
              <path
                 fill="#4f5255"
                 stroke="#4f5255"
                 paint-order="fill stroke markers"
                 d="M 0,0 M 15.26,3.1 H 0.42 C 0.189,3.1 0,2.911 0,2.68 V 1.56 C 0,1.329 0.189,1.14 0.42,1.14 h 14.84 c 0.231,0 0.42,0.189 0.42,0.42 v 1.12 c 0,0.231 -0.189,0.42 -0.42,0.42 z M 0,0 M 15.26,8.7 H 0.42 C 0.189,8.7 0,8.511 0,8.28 V 7.16 C 0,6.929 0.189,6.74 0.42,6.74 h 14.84 c 0.231,0 0.42,0.189 0.42,0.42 v 1.12 c 0,0.231 -0.189,0.42 -0.42,0.42 z M 0,0 M 15.26,14.3 H 0.42 C 0.189,14.3 0,14.111 0,13.88 v -1.12 c 0,-0.231 0.189,-0.42 0.42,-0.42 h 14.84 c 0.231,0 0.42,0.189 0.42,0.42 v 1.12 c 0,0.231 -0.189,0.42 -0.42,0.42 z"
                 stroke-miterlimit="10"
                 stroke-dasharray="none"
                 id="path14" />
            </g>
          </g>
          <g
             transform="translate(80,31.5)"
             id="g17">
            <text
               fill="#383b3d"
               stroke="none"
               font-family="'Open Sans'"
               font-size="16px"
               font-style="normal"
               font-weight="normal"
               text-decoration="normal"
               x="68.257812"
               y="12"
               text-anchor="middle"
               dominant-baseline="central"
               id="text16">PrintStartMessage</text>
          </g>
        </g>
        <g
           id="g25"
           transform="translate(50,446)">
          <g
             id="g19">
            <path
               fill="#ffffff"
               stroke="#cccccc"
               id="_755D2074-9183-4F7D-BC73-6327A8E181EE?shapeType=BACKGROUND"
               paint-order="fill stroke markers"
               d="M 0,5 V 5 5 A 5,5 0 0 1 5,0 h 240 v 0 0 a 5,5 0 0 1 5,5 v 80 0 0 a 5,5 0 0 1 -5,5 H 5 v 0 0 A 5,5 0 0 1 0,85 Z"
               stroke-miterlimit="10"
               stroke-width="2"
               stroke-dasharray="none" />
          </g>
          <g
             transform="translate(45,46)"
             id="g23">
            <g
               id="g20">
              <path
                 fill="#f4c145"
                 stroke="#d5d5d5"
                 id="_755D2074-9183-4F7D-BC73-6327A8E181EE"
                 paint-order="fill stroke markers"
                 d="m 0,-25 v 0 0 A 25,25 0 0 1 25,0 V 0 0 A 25,25 0 0 1 0,25 v 0 0 A 25,25 0 0 1 -25,0 V 0 0 A 25,25 0 0 1 0,-25 Z"
                 stroke-miterlimit="10"
                 stroke-dasharray="none" />
            </g>
            <g
               id="g22">
              <g
                 transform="matrix(0.35,0,0,0.35,-11,-11)"
                 id="g21">
                <path
                   fill="#ffffff"
                   stroke="#ffffff"
                   paint-order="fill stroke markers"
                   d="m 0,0 m 45.254,45.197 h -9.038 l 5.99,-13.405 c 0.407,-0.812 0.101,-1.827 -0.609,-2.437 -0.71,-0.609 -1.829,-0.506 -2.537,0.102 L 19.561,45.705 c -0.608,0.51 -0.915,1.423 -0.608,2.234 0.305,0.815 1.015,1.323 1.93,1.323 h 9.038 l -5.993,13.405 c -0.407,0.811 -0.103,1.826 0.61,2.436 0.405,0.407 0.709,0.506 1.218,0.506 0.507,0 0.914,-0.203 1.32,-0.506 L 46.573,48.854 c 0.61,-0.507 0.915,-1.423 0.61,-2.234 -0.304,-0.812 -1.117,-1.423 -1.929,-1.423 z M 0,0 m 53.378,16.865 c -0.103,0 -0.103,0 -0.203,0 0.1,-0.712 0.203,-1.322 0.203,-2.031 0,-5.587 -4.57,-10.155 -10.156,-10.155 -3.149,0 -5.889,1.422 -7.717,3.655 -2.437,-4.569 -7.111,-7.719 -12.594,-7.719 -7.817,0 -14.217,6.399 -14.217,14.219 0,0.913 0.1,1.827 0.303,2.741 -4.974,1.625 -8.528,6.297 -8.426,11.78 0.202,6.702 5.687,11.882 12.287,11.882 h 5.788 L 36.419,26.41 c 1.116,-0.914 2.437,-1.421 3.857,-1.421 1.321,0 2.643,0.407 3.656,1.218 2.237,1.726 3.049,4.773 1.829,7.314 l -3.25,7.716 h 10.764 c 6.603,0 12.085,-5.18 12.288,-11.78 0.203,-6.905 -5.278,-12.592 -12.185,-12.592 z"
                   stroke-miterlimit="10"
                   stroke-width="2"
                   stroke-dasharray="none"
                   id="path20" />
              </g>
            </g>
          </g>
          <g
             transform="translate(80,31.5)"
             id="g24">
            <text
               fill="#383b3d"
               stroke="none"
               font-family="'Open Sans'"
               font-size="16px"
               font-style="normal"
               font-weight="normal"
               text-decoration="normal"
               x="49.449219"
               y="12"
               text-anchor="middle"
               dominant-baseline="central"
               id="text23">WaitForEvent</text>
          </g>
        </g>
        <g
           id="_57AFF54E-D487-461A-A8A4-6D582687166F"
           transform="translate(152,663)">
          <g
             id="g26">
            <path
               fill="#ffffff"
               stroke="#cccccc"
               id="_57AFF54E-D487-461A-A8A4-6D582687166F?shapeType=BACKGROUND"
               paint-order="fill stroke markers"
               d="M 0,0 H 46 V 46 H 0 Z"
               stroke-miterlimit="10"
               stroke-width="2"
               stroke-dasharray="none" />
          </g>
          <g
             transform="translate(9,29)"
             id="g27">
            <text
               fill="#929292"
               stroke="none"
               font-family="'Open Sans'"
               font-size="16px"
               font-style="normal"
               font-weight="normal"
               text-decoration="normal"
               x="0"
               y="0"
               text-anchor="start"
               dominant-baseline="alphabetic"
               id="text26">End</text>
          </g>
        </g>
        <g
           id="startEdge">
          <g
             id="g28">
            <path
               fill="none"
               stroke="#757575"
               paint-order="fill stroke markers"
               d="M 175,100 V 110 174.66667 217"
               stroke-miterlimit="10"
               stroke-width="2"
               stroke-dasharray="none"
               id="path27" />
          </g>
          <g
             transform="translate(175,100)"
             id="g29" />
          <g
             transform="rotate(180,89.5,114.5)"
             id="g30">
            <path
               fill="#757575"
               stroke="#757575"
               paint-order="fill stroke markers"
               d="M 8,15 H 0 L 4,3 Z"
               stroke-miterlimit="10"
               stroke-width="2"
               stroke-dasharray="none"
               id="path29" />
          </g>
          <g
             id="g31" />
          <g
             transform="translate(185,164.5)"
             id="g32" />
        </g>
        <g
           id="_E5D69164-19D1-4A9A-B74D-5CED8463438C">
          <g
             id="g33">
            <path
               fill="none"
               stroke="#757575"
               paint-order="fill stroke markers"
               d="M 175,319 V 329 392.33333 434"
               stroke-miterlimit="10"
               stroke-width="2"
               stroke-dasharray="none"
               id="path32" />
          </g>
          <g
             transform="translate(175,319)"
             id="g34" />
          <g
             transform="rotate(180,89.5,223)"
             id="g35">
            <path
               fill="#757575"
               stroke="#757575"
               paint-order="fill stroke markers"
               d="M 8,15 H 0 L 4,3 Z"
               stroke-miterlimit="10"
               stroke-width="2"
               stroke-dasharray="none"
               id="path34" />
          </g>
          <g
             id="g36" />
          <g
             transform="translate(185,382.5)"
             id="g37" />
        </g>
        <g
           id="_E2A86409-460A-487E-8EBA-0B580E1BCD44">
          <g
             id="g38">
            <path
               fill="none"
               stroke="#757575"
               paint-order="fill stroke markers"
               d="M 175,536 V 546 609.33333 651"
               stroke-miterlimit="10"
               stroke-width="2"
               stroke-dasharray="none"
               id="path37" />
          </g>
          <g
             transform="translate(175,536)"
             id="g39" />
          <g
             transform="rotate(180,89.5,331.5)"
             id="g40">
            <path
               fill="#757575"
               stroke="#757575"
               paint-order="fill stroke markers"
               d="M 8,15 H 0 L 4,3 Z"
               stroke-miterlimit="10"
               stroke-width="2"
               stroke-dasharray="none"
               id="path39" />
          </g>
          <g
             id="g41" />
          <g
             transform="translate(185,599.5)"
             id="g42" />
        </g>
      </g>
    </g>
  </g>
  <g
     inkscape:groupmode="layer"
     id="layer2"
     inkscape:label="Layer 2"
     style="display:inline"
     transform="translate(0.5,0.5)">
    <text
       xml:space="preserve"
       style="font-style:normal;font-variant:normal;font-weight:normal;font-stretch:normal;font-size:13.3333px;line-height:1.25;font-family:sans-serif;-inkscape-font-specification:'sans-serif, Normal';font-variant-ligatures:normal;font-variant-caps:normal;font-variant-numeric:normal;font-variant-east-asian:normal;display:inline"
       x="219.86592"
       y="137.45197"
       id="text13526"><tspan
         sodipodi:role="line"
         id="tspan13524"
         x="219.86592"
         y="137.45197"
         style="font-style:normal;font-variant:normal;font-weight:normal;font-stretch:normal;font-size:14.6667px;font-family:sans-serif;-inkscape-font-specification:'sans-serif, Normal';font-variant-ligatures:normal;font-variant-caps:normal;font-variant-numeric:normal;font-variant-east-asian:normal">&quot;workflowExecTimeout&quot;: &quot;PT1H&quot;</tspan></text>
    <text
       xml:space="preserve"
       style="font-style:normal;font-variant:normal;font-weight:normal;font-stretch:normal;font-size:13.3333px;line-height:1.25;font-family:sans-serif;-inkscape-font-specification:'sans-serif, Normal';font-variant-ligatures:normal;font-variant-caps:normal;font-variant-numeric:normal;font-variant-east-asian:normal;display:inline"
       x="313.1041"
       y="409.78506"
       id="text13526-3"><tspan
         sodipodi:role="line"
         id="tspan13524-4"
         x="313.1041"
         y="409.78506"
         style="font-style:normal;font-variant:normal;font-weight:normal;font-stretch:normal;font-size:14.6667px;font-family:sans-serif;-inkscape-font-specification:'sans-serif, Normal';font-variant-ligatures:normal;font-variant-caps:normal;font-variant-numeric:normal;font-variant-east-asian:normal">Workflow is cancelled if it has not </tspan><tspan
         sodipodi:role="line"
         x="313.1041"
         y="428.11844"
         style="font-style:normal;font-variant:normal;font-weight:normal;font-stretch:normal;font-size:14.6667px;font-family:sans-serif;-inkscape-font-specification:'sans-serif, Normal';font-variant-ligatures:normal;font-variant-caps:normal;font-variant-numeric:normal;font-variant-east-asian:normal"
         id="tspan45">finalized within one hour.</tspan></text>
    <path
       style="display:inline;fill:none;stroke:#000000;stroke-width:1.8;stroke-linecap:butt;stroke-linejoin:miter;stroke-miterlimit:4;stroke-dasharray:none;stroke-opacity:1;marker-start:url(#Arrow1Lstart)"
       d="m 313.37026,370.97081 140.72145,0.47774"
       id="path4007"
       sodipodi:nodetypes="cc" />
    <g
       id="g45"
       transform="rotate(43.759087,430.76623,370.12987)">
      <path
         style="display:inline;fill:#000000;stroke:#000000;stroke-width:1.8;stroke-dasharray:none;stroke-opacity:1"
         d="m 400.15674,382.85636 -0.13165,16.30996 -0.15097,18.70428"
         id="path44"
         sodipodi:nodetypes="ccc" />
      <path
         style="display:inline;fill:#000000;stroke:#000000;stroke-width:1.8;stroke-dasharray:none;stroke-opacity:1"
         d="m 417.43062,400.40809 -35.01526,-0.0977"
         id="path44-1" />
    </g>
  </g>
</svg>
