<?xml version="1.0" encoding="UTF-8" standalone="no"?>
<svg
   version="1.1"
   width="682"
   height="813"
   viewBox="0 0 682 813"
   id="svg113102"
   sodipodi:docname="event-state-timeouts-decorated.svg"
   inkscape:version="1.1.2 (0a00cf5339, 2022-02-04)"
   xmlns:inkscape="http://www.inkscape.org/namespaces/inkscape"
   xmlns:sodipodi="http://sodipodi.sourceforge.net/DTD/sodipodi-0.dtd"
   xmlns="http://www.w3.org/2000/svg"
   xmlns:svg="http://www.w3.org/2000/svg">
  <sodipodi:namedview
     id="namedview113104"
     pagecolor="#ffffff"
     bordercolor="#666666"
     borderopacity="1.0"
     inkscape:pageshadow="2"
     inkscape:pageopacity="0.0"
     inkscape:pagecheckerboard="0"
     showgrid="false"
     inkscape:zoom="0.96924969"
     inkscape:cx="443.12627"
     inkscape:cy="581.37754"
     inkscape:window-width="1920"
     inkscape:window-height="960"
     inkscape:window-x="0"
     inkscape:window-y="27"
     inkscape:window-maximized="1"
     inkscape:current-layer="svg113102"
     units="mm" />
  <defs
     id="defs112908">
    <marker
       style="overflow:visible"
       id="Arrow1Lstart"
       refX="0"
       refY="0"
       orient="auto"
       inkscape:stockid="Arrow1Lstart"
       inkscape:isstock="true">
      <path
         transform="matrix(0.8,0,0,0.8,10,0)"
         style="fill:context-stroke;fill-rule:evenodd;stroke:context-stroke;stroke-width:1pt"
         d="M 0,0 5,-5 -12.5,0 5,5 Z"
         id="path4904" />
    </marker>
    <marker
       style="overflow:visible"
       id="Arrow1Lstart-3"
       refX="0"
       refY="0"
       orient="auto"
       inkscape:stockid="Arrow1Lstart"
       inkscape:isstock="true">
      <path
         transform="matrix(0.8,0,0,0.8,10,0)"
         style="fill:context-stroke;fill-rule:evenodd;stroke:context-stroke;stroke-width:1pt"
         d="M 0,0 5,-5 -12.5,0 5,5 Z"
         id="path4904-0" />
    </marker>
  </defs>
  <g
     id="g113100">
    <g
       id="g113098">
      <g
         id="g112918">
        <g
           id="g112912">
          <path
             fill="none"
             stroke="#d3d3d3"
             paint-order="fill stroke markers"
             d="M 0,0 H 1200"
             stroke-miterlimit="10"
             stroke-opacity="0.8"
             stroke-dasharray="5"
             id="path112910" />
        </g>
        <g
           id="g112916">
          <path
             fill="none"
             stroke="#d3d3d3"
             paint-order="fill stroke markers"
             d="M 0,0 V 800"
             stroke-miterlimit="10"
             stroke-opacity="0.8"
             stroke-dasharray="5"
             id="path112914" />
        </g>
      </g>
      <g
         id="_A00B8F01-4EA8-471D-8CA2-BDB416866F30"
         transform="translate(172,50)">
        <g
           id="g112922">
          <path
             fill="none"
             stroke="none"
             id="path112920" />
        </g>
        <g
           id="g112930">
          <g
             transform="translate(25,25)"
             id="g112925">
            <path
               fill="#ffffff"
               stroke="none"
               id="_A00B8F01-4EA8-471D-8CA2-BDB416866F30?shapeType=BACKGROUND"
               paint-order="stroke fill markers"
               d="m 25,0 a 25,25 0 1 0 -1.2e-5,0.025 z" />
          </g>
          <g
             transform="translate(25,25)"
             id="g112928">
            <path
               fill="none"
               stroke="#d5d5d5"
               id="_A00B8F01-4EA8-471D-8CA2-BDB416866F30?shapeType=BORDER&amp;renderType=STROKE"
               paint-order="fill stroke markers"
               d="m 25,0 a 25,25 0 1 0 -1.2e-5,0.025 z"
               stroke-miterlimit="10"
               stroke-width="2"
               stroke-dasharray="none" />
          </g>
        </g>
        <g
           transform="translate(7.2460937,17.5)"
           id="g112934">
          <text
             fill="#000000"
             stroke="none"
             font-family="'Open Sans'"
             font-size="16px"
             font-style="normal"
             font-weight="normal"
             text-decoration="normal"
             x="17.753906"
             y="12"
             text-anchor="middle"
             dominant-baseline="alphabetic"
             fill-opacity="0.4"
             id="text112932">Start</text>
        </g>
      </g>
      <g
         transform="translate(172,50)"
         id="g112937" />
      <g
         id="_4CAEF522-F51B-49D2-8754-54C8442C86BA"
         transform="translate(172.5,716)">
        <g
           id="g112941">
          <path
             fill="none"
             stroke="none"
             id="path112939" />
        </g>
        <g
           id="g112944">
          <path
             fill="#ffffff"
             stroke="none"
             id="_4CAEF522-F51B-49D2-8754-54C8442C86BA?shapeType=BACKGROUND"
             paint-order="stroke fill markers"
             d="M 0,0 H 49 V 47 H 0 Z" />
        </g>
        <g
           id="g112947">
          <path
             fill="none"
             stroke="#d5d5d5"
             id="_4CAEF522-F51B-49D2-8754-54C8442C86BA?shapeType=BORDER&amp;renderType=STROKE"
             paint-order="fill stroke markers"
             d="M 0,0 H 49 V 47 H 0 Z"
             stroke-miterlimit="10"
             stroke-width="2"
             stroke-dasharray="none" />
        </g>
        <g
           transform="translate(10.238281,16)"
           id="g112951">
          <text
             fill="#000000"
             stroke="none"
             font-family="'Open Sans'"
             font-size="16px"
             font-style="normal"
             font-weight="normal"
             text-decoration="normal"
             x="14.261719"
             y="12"
             text-anchor="middle"
             dominant-baseline="alphabetic"
             fill-opacity="0.4"
             id="text112949">End</text>
        </g>
      </g>
      <g
         transform="translate(172.5,716)"
         id="g112954" />
      <g
         id="_089B863D-7F26-4257-8D77-B46D707ABE2D"
         transform="translate(70,185)">
        <g
           id="g112958">
          <path
             fill="none"
             stroke="none"
             id="path112956" />
        </g>
        <g
           id="g112961">
          <path
             fill="#ffffff"
             stroke="none"
             id="_089B863D-7F26-4257-8D77-B46D707ABE2D?shapeType=BACKGROUND"
             paint-order="stroke fill markers"
             d="m 5,0 h 244 v 0 a 5,5 0 0 1 5,5 v 82 0 a 5,5 0 0 1 -5,5 H 5 v 0 A 5,5 0 0 1 0,87 V 5 5 A 5,5 0 0 1 5,0 Z" />
        </g>
        <g
           id="g112964">
          <path
             fill="none"
             stroke="#d5d5d5"
             id="_089B863D-7F26-4257-8D77-B46D707ABE2D?shapeType=BORDER&amp;renderType=STROKE"
             paint-order="fill stroke markers"
             d="m 10,0 h 234 v 0 a 10,10 0 0 1 10,10 v 72 0 A 10,10 0 0 1 244,92 H 10 v 0 A 10,10 0 0 1 0,82 V 10 10 A 10,10 0 0 1 10,0 Z"
             stroke-miterlimit="10"
             stroke-width="2"
             stroke-dasharray="none" />
        </g>
        <g
           transform="translate(45,46)"
           id="g112967">
          <path
             fill="none"
             stroke="#d5d5d5"
             id="_089B863D-7F26-4257-8D77-B46D707ABE2D_state-inner-circle"
             paint-order="fill stroke markers"
             d="m 25,0 a 25,25 0 1 0 -1.2e-5,0.025 z"
             stroke-miterlimit="10"
             stroke-width="2"
             stroke-dasharray="none" />
        </g>
        <g
           transform="translate(45,46)"
           id="g112970">
          <path
             fill="#0066cc"
             stroke="none"
             id="_089B863D-7F26-4257-8D77-B46D707ABE2D_state-inner-circle-border"
             paint-order="stroke fill markers"
             d="m 25,0 a 25,25 0 1 0 -1.2e-5,0.025 z" />
        </g>
        <g
           id="g112977">
          <g
             transform="matrix(0.35,0,0,0.35,33.8,34.45)"
             id="g112975">
            <g
               id="g112973">
              <path
                 fill="#ffffff"
                 stroke="#ffffff"
                 id="_089B863D-7F26-4257-8D77-B46D707ABE2D_state__9lPi__EKpD"
                 paint-order="fill stroke markers"
                 d="m 0,0 m 61.99,20.83 c 0.41,1.07 0.06,2.29 -0.79,3.07 l -5.41,4.93 c 0.14,1.04 0.21,2.1 0.21,3.17 0,1.07 -0.08,2.14 -0.21,3.17 l 5.41,4.92 c 0.85,0.79 1.2,2 0.79,3.08 -0.55,1.49 -1.21,2.92 -1.96,4.29 l -0.59,1.01 c -0.83,1.38 -1.75,2.68 -2.76,3.91 -0.75,0.89 -1.96,1.2 -3.06,0.85 l -6.96,-2.22 c -1.68,1.29 -3.64,2.36 -5.5,3.19 l -1.56,7.14 c -0.25,1.12 -1.12,1.92 -2.28,2.22 -1.72,0.29 -3.5,0.44 -5.42,0.44 -1.7,0 -3.48,-0.15 -5.2,-0.44 -1.15,-0.3 -2.02,-1.1 -2.27,-2.22 L 22.87,54.2 c -1.98,-0.83 -3.83,-1.9 -5.5,-3.19 l -6.96,2.22 C 9.31,53.58 8.09,53.27 7.35,52.38 6.34,51.14 5.41,49.84 4.59,48.47 L 4,47.46 C 3.24,46.1 2.58,44.66 2.03,43.17 1.63,42.09 1.97,40.88 2.82,40.09 L 8.23,35.17 C 8.09,34.13 8.02,33.07 8.02,32 c 0,-1.07 0.07,-2.14 0.21,-3.17 L 2.82,23.9 C 1.96,23.11 1.62,21.91 2.03,20.83 2.58,19.34 3.25,17.9 4,16.54 l 0.58,-1.01 c 0.83,-1.38 1.75,-2.67 2.77,-3.91 0.74,-0.89 1.96,-1.2 3.06,-0.85 l 6.96,2.22 c 1.67,-1.29 3.52,-2.37 5.5,-3.18 L 24.43,2.67 C 24.68,1.54 25.55,0.63 26.7,0.44 28.43,0.15 30.2,0 32.01,0 c 1.81,0 3.59,0.15 5.31,0.44 1.15,0.19 2.03,1.09 2.28,2.23 l 1.56,7.14 c 1.86,0.82 3.82,1.89 5.5,3.18 l 6.96,-2.22 c 1.1,-0.35 2.31,-0.04 3.06,0.85 1.01,1.23 1.94,2.53 2.76,3.91 l 0.59,1.01 c 0.75,1.36 1.41,2.8 1.96,4.29 z M 0,0 m 32,42 c 5.53,0 10,-4.47 10,-10.11 0,-5.64 -4.47,-10 -10,-10 -5.53,0 -10,4.59 -10,10 C 22,37.3 26.48,42 32,42 Z"
                 stroke-miterlimit="10"
                 stroke-width="3"
                 stroke-dasharray="none" />
            </g>
          </g>
        </g>
        <g
           transform="translate(85,38.5)"
           id="g112981">
          <text
             fill="#000000"
             stroke="none"
             font-family="'Open Sans'"
             font-size="16px"
             font-style="normal"
             font-weight="normal"
             text-decoration="normal"
             x="68.257812"
             y="12"
             text-anchor="middle"
             dominant-baseline="alphabetic"
             id="text112979">PrintStartMessage</text>
        </g>
      </g>
      <g
         transform="translate(70,185)"
         id="g112984" />
      <g
         id="_2CD61F26-AA3F-4FA6-A528-BE87EFD4C84E"
         transform="translate(70,362)">
        <g
           id="g112988">
          <path
             fill="none"
             stroke="none"
             id="path112986" />
        </g>
        <g
           id="g112991">
          <path
             fill="#ffffff"
             stroke="none"
             id="_2CD61F26-AA3F-4FA6-A528-BE87EFD4C84E?shapeType=BACKGROUND"
             paint-order="stroke fill markers"
             d="m 5,0 h 244 v 0 a 5,5 0 0 1 5,5 v 82 0 a 5,5 0 0 1 -5,5 H 5 v 0 A 5,5 0 0 1 0,87 V 5 5 A 5,5 0 0 1 5,0 Z" />
        </g>
        <g
           id="g112994">
          <path
             fill="none"
             stroke="#d5d5d5"
             id="_2CD61F26-AA3F-4FA6-A528-BE87EFD4C84E?shapeType=BORDER&amp;renderType=STROKE"
             paint-order="fill stroke markers"
             d="m 10,0 h 234 v 0 a 10,10 0 0 1 10,10 v 72 0 A 10,10 0 0 1 244,92 H 10 v 0 A 10,10 0 0 1 0,82 V 10 10 A 10,10 0 0 1 10,0 Z"
             stroke-miterlimit="10"
             stroke-width="2"
             stroke-dasharray="none" />
        </g>
        <g
           transform="translate(45,46)"
           id="g112997">
          <path
             fill="none"
             stroke="#d5d5d5"
             id="_2CD61F26-AA3F-4FA6-A528-BE87EFD4C84E_state-inner-circle"
             paint-order="fill stroke markers"
             d="m 25,0 a 25,25 0 1 0 -1.2e-5,0.025 z"
             stroke-miterlimit="10"
             stroke-width="2"
             stroke-dasharray="none" />
        </g>
        <g
           transform="translate(45,46)"
           id="g113000">
          <path
             fill="#f4c145"
             stroke="none"
             id="_2CD61F26-AA3F-4FA6-A528-BE87EFD4C84E_state-inner-circle-border"
             paint-order="stroke fill markers"
             d="m 25,0 a 25,25 0 1 0 -1.2e-5,0.025 z" />
        </g>
        <g
           id="g113007">
          <g
             transform="matrix(0.35,0,0,0.35,33.8,34.45)"
             id="g113005">
            <g
               id="g113003">
              <path
                 fill="#ffffff"
                 stroke="#ffffff"
                 id="_2CD61F26-AA3F-4FA6-A528-BE87EFD4C84E_state__Mts6__bQLZ"
                 paint-order="fill stroke markers"
                 d="M 0,0 M 24,4 V 8 H 40 V 4 c 0,-2.21 1.79,-4 4,-4 2.21,0 4,1.79 4,4 v 4 h 6 c 3.31,0 6,2.69 6,6 v 6 H 4 V 14 C 4,10.69 6.69,8 10,8 h 6 V 4 c 0,-2.21 1.79,-4 4,-4 2.21,0 4,1.79 4,4 z M 0,0 m 4,24 h 56 v 34 c 0,3.31 -2.69,6 -6,6 H 10 C 6.69,64 4,61.31 4,58 Z M 0,0 m 14,32 c -1.1,0 -2,0.9 -2,2 v 12 c 0,1.1 0.9,2 2,2 h 12 c 1.1,0 2,-0.9 2,-2 V 34 c 0,-1.1 -0.9,-2 -2,-2 z"
                 stroke-miterlimit="10"
                 stroke-width="3"
                 stroke-dasharray="none" />
            </g>
          </g>
        </g>
        <g
           transform="translate(85,38.5)"
           id="g113011">
          <text
             fill="#000000"
             stroke="none"
             font-family="'Open Sans'"
             font-size="16px"
             font-style="normal"
             font-weight="normal"
             text-decoration="normal"
             x="49.449219"
             y="12"
             text-anchor="middle"
             dominant-baseline="alphabetic"
             id="text113009">WaitForEvent</text>
        </g>
      </g>
      <g
         transform="translate(70,362)"
         id="g113014" />
      <g
         id="_97360F18-7125-40CD-B83E-51FF146BCBE2"
         transform="translate(70,539)">
        <g
           id="g113018">
          <path
             fill="none"
             stroke="none"
             id="path113016" />
        </g>
        <g
           id="g113021">
          <path
             fill="#ffffff"
             stroke="none"
             id="_97360F18-7125-40CD-B83E-51FF146BCBE2?shapeType=BACKGROUND"
             paint-order="stroke fill markers"
             d="m 5,0 h 244 v 0 a 5,5 0 0 1 5,5 v 82 0 a 5,5 0 0 1 -5,5 H 5 v 0 A 5,5 0 0 1 0,87 V 5 5 A 5,5 0 0 1 5,0 Z" />
        </g>
        <g
           id="g113024">
          <path
             fill="none"
             stroke="#d5d5d5"
             id="_97360F18-7125-40CD-B83E-51FF146BCBE2?shapeType=BORDER&amp;renderType=STROKE"
             paint-order="fill stroke markers"
             d="m 10,0 h 234 v 0 a 10,10 0 0 1 10,10 v 72 0 A 10,10 0 0 1 244,92 H 10 v 0 A 10,10 0 0 1 0,82 V 10 10 A 10,10 0 0 1 10,0 Z"
             stroke-miterlimit="10"
             stroke-width="2"
             stroke-dasharray="none" />
        </g>
        <g
           transform="translate(45,46)"
           id="g113027">
          <path
             fill="none"
             stroke="#d5d5d5"
             id="_97360F18-7125-40CD-B83E-51FF146BCBE2_state-inner-circle"
             paint-order="fill stroke markers"
             d="m 25,0 a 25,25 0 1 0 -1.2e-5,0.025 z"
             stroke-miterlimit="10"
             stroke-width="2"
             stroke-dasharray="none" />
        </g>
        <g
           transform="translate(45,46)"
           id="g113030">
          <path
             fill="#0066cc"
             stroke="none"
             id="_97360F18-7125-40CD-B83E-51FF146BCBE2_state-inner-circle-border"
             paint-order="stroke fill markers"
             d="m 25,0 a 25,25 0 1 0 -1.2e-5,0.025 z" />
        </g>
        <g
           id="g113037">
          <g
             transform="matrix(0.35,0,0,0.35,33.8,34.45)"
             id="g113035">
            <g
               id="g113033">
              <path
                 fill="#ffffff"
                 stroke="#ffffff"
                 id="_97360F18-7125-40CD-B83E-51FF146BCBE2_state__9lPi__EKpD"
                 paint-order="fill stroke markers"
                 d="m 0,0 m 61.99,20.83 c 0.41,1.07 0.06,2.29 -0.79,3.07 l -5.41,4.93 c 0.14,1.04 0.21,2.1 0.21,3.17 0,1.07 -0.08,2.14 -0.21,3.17 l 5.41,4.92 c 0.85,0.79 1.2,2 0.79,3.08 -0.55,1.49 -1.21,2.92 -1.96,4.29 l -0.59,1.01 c -0.83,1.38 -1.75,2.68 -2.76,3.91 -0.75,0.89 -1.96,1.2 -3.06,0.85 l -6.96,-2.22 c -1.68,1.29 -3.64,2.36 -5.5,3.19 l -1.56,7.14 c -0.25,1.12 -1.12,1.92 -2.28,2.22 -1.72,0.29 -3.5,0.44 -5.42,0.44 -1.7,0 -3.48,-0.15 -5.2,-0.44 -1.15,-0.3 -2.02,-1.1 -2.27,-2.22 L 22.87,54.2 c -1.98,-0.83 -3.83,-1.9 -5.5,-3.19 l -6.96,2.22 C 9.31,53.58 8.09,53.27 7.35,52.38 6.34,51.14 5.41,49.84 4.59,48.47 L 4,47.46 C 3.24,46.1 2.58,44.66 2.03,43.17 1.63,42.09 1.97,40.88 2.82,40.09 L 8.23,35.17 C 8.09,34.13 8.02,33.07 8.02,32 c 0,-1.07 0.07,-2.14 0.21,-3.17 L 2.82,23.9 C 1.96,23.11 1.62,21.91 2.03,20.83 2.58,19.34 3.25,17.9 4,16.54 l 0.58,-1.01 c 0.83,-1.38 1.75,-2.67 2.77,-3.91 0.74,-0.89 1.96,-1.2 3.06,-0.85 l 6.96,2.22 c 1.67,-1.29 3.52,-2.37 5.5,-3.18 L 24.43,2.67 C 24.68,1.54 25.55,0.63 26.7,0.44 28.43,0.15 30.2,0 32.01,0 c 1.81,0 3.59,0.15 5.31,0.44 1.15,0.19 2.03,1.09 2.28,2.23 l 1.56,7.14 c 1.86,0.82 3.82,1.89 5.5,3.18 l 6.96,-2.22 c 1.1,-0.35 2.31,-0.04 3.06,0.85 1.01,1.23 1.94,2.53 2.76,3.91 l 0.59,1.01 c 0.75,1.36 1.41,2.8 1.96,4.29 z M 0,0 m 32,42 c 5.53,0 10,-4.47 10,-10.11 0,-5.64 -4.47,-10 -10,-10 -5.53,0 -10,4.59 -10,10 C 22,37.3 26.48,42 32,42 Z"
                 stroke-miterlimit="10"
                 stroke-width="3"
                 stroke-dasharray="none" />
            </g>
          </g>
        </g>
        <g
           transform="translate(85,38.5)"
           id="g113041">
          <text
             fill="#000000"
             stroke="none"
             font-family="'Open Sans'"
             font-size="16px"
             font-style="normal"
             font-weight="normal"
             text-decoration="normal"
             x="63.992188"
             y="12"
             text-anchor="middle"
             dominant-baseline="alphabetic"
             id="text113039">PrintExitMessage</text>
        </g>
      </g>
      <g
         transform="translate(70,539)"
         id="g113044" />
      <g
         id="startEdge">
        <g
           id="g113048">
          <path
             fill="none"
             stroke="#757575"
             paint-order="fill stroke markers"
             d="m 197,100 v 70"
             stroke-miterlimit="10"
             stroke-width="1.5"
             stroke-dasharray="none"
             id="path113046" />
        </g>
        <g
           transform="translate(197,100)"
           id="g113050" />
        <g
           transform="rotate(180,101,92.5)"
           id="g113054">
          <path
             fill="#757575"
             stroke="#757575"
             paint-order="fill stroke markers"
             d="M 10,15 H 0 L 5,0 Z"
             stroke-miterlimit="10"
             stroke-width="1.5"
             stroke-dasharray="none"
             id="path113052" />
        </g>
        <g
           transform="translate(207,142.5)"
           id="g113056" />
      </g>
      <g
         id="_96AEDC83-9441-4F77-861B-C81D48ADAE32">
        <g
           id="g113061">
          <path
             fill="none"
             stroke="#757575"
             paint-order="fill stroke markers"
             d="m 197,277 v 70"
             stroke-miterlimit="10"
             stroke-width="1.5"
             stroke-dasharray="none"
             id="path113059" />
        </g>
        <g
           transform="translate(197,277)"
           id="g113063" />
        <g
           transform="rotate(180,101,181)"
           id="g113067">
          <path
             fill="#757575"
             stroke="#757575"
             paint-order="fill stroke markers"
             d="M 10,15 H 0 L 5,0 Z"
             stroke-miterlimit="10"
             stroke-width="1.5"
             stroke-dasharray="none"
             id="path113065" />
        </g>
        <g
           transform="translate(207,319.5)"
           id="g113069" />
      </g>
      <g
         id="_21178C2A-1983-4521-996D-BC0647272265">
        <g
           id="g113074">
          <path
             fill="none"
             stroke="#757575"
             paint-order="fill stroke markers"
             d="m 197,454 v 70"
             stroke-miterlimit="10"
             stroke-width="1.5"
             stroke-dasharray="none"
             id="path113072" />
        </g>
        <g
           transform="translate(197,454)"
           id="g113076" />
        <g
           transform="rotate(180,101,269.5)"
           id="g113080">
          <path
             fill="#757575"
             stroke="#757575"
             paint-order="fill stroke markers"
             d="M 10,15 H 0 L 5,0 Z"
             stroke-miterlimit="10"
             stroke-width="1.5"
             stroke-dasharray="none"
             id="path113078" />
        </g>
        <g
           transform="translate(207,496.5)"
           id="g113082" />
      </g>
      <g
         id="_6FF791D2-45D6-4F55-A977-F999BEB932A0">
        <g
           id="g113087">
          <path
             fill="none"
             stroke="#757575"
             paint-order="fill stroke markers"
             d="m 197,631 v 70"
             stroke-miterlimit="10"
             stroke-width="1.5"
             stroke-dasharray="none"
             id="path113085" />
        </g>
        <g
           transform="translate(197,631)"
           id="g113089" />
        <g
           transform="rotate(180,101,358)"
           id="g113093">
          <path
             fill="#757575"
             stroke="#757575"
             paint-order="fill stroke markers"
             d="M 10,15 H 0 L 5,0 Z"
             stroke-miterlimit="10"
             stroke-width="1.5"
             stroke-dasharray="none"
             id="path113091" />
        </g>
        <g
           transform="translate(207,673.5)"
           id="g113095" />
      </g>
    </g>
  </g>
  <text
     xml:space="preserve"
     style="font-style:normal;font-variant:normal;font-weight:normal;font-stretch:normal;font-size:13.3333px;line-height:1.25;font-family:sans-serif;-inkscape-font-specification:'sans-serif, Normal';font-variant-ligatures:normal;font-variant-caps:normal;font-variant-numeric:normal;font-variant-east-asian:normal;display:inline"
     x="139.57396"
     y="442.66678"
     id="text13526"><tspan
       sodipodi:role="line"
       id="tspan13524"
       x="139.57396"
       y="442.66678"
       style="font-style:normal;font-variant:normal;font-weight:normal;font-stretch:normal;font-size:14.6667px;font-family:sans-serif;-inkscape-font-specification:'sans-serif, Normal';font-variant-ligatures:normal;font-variant-caps:normal;font-variant-numeric:normal;font-variant-east-asian:normal">&quot;eventTimeout&quot;: &quot;PT30S&quot;</tspan></text>
  <path
     style="display:inline;fill:none;stroke:#000000;stroke-width:1.8;stroke-linecap:butt;stroke-linejoin:miter;stroke-miterlimit:4;stroke-dasharray:none;stroke-opacity:1;marker-start:url(#Arrow1Lstart)"
     d="m 342.3485,368.98361 67.06435,0.26442"
     id="path4007" />
  <text
     xml:space="preserve"
     style="font-style:normal;font-variant:normal;font-weight:normal;font-stretch:normal;font-size:13.3333px;line-height:1.25;font-family:sans-serif;-inkscape-font-specification:'sans-serif, Normal';font-variant-ligatures:normal;font-variant-caps:normal;font-variant-numeric:normal;font-variant-east-asian:normal;display:inline;opacity:0.84"
     x="424.94296"
     y="373.62512"
     id="text13526-4-0"><tspan
       sodipodi:role="line"
       id="tspan13524-3-4"
       x="424.94296"
       y="373.62512"
       style="font-style:normal;font-variant:normal;font-weight:normal;font-stretch:normal;font-size:14.6667px;font-family:sans-serif;-inkscape-font-specification:'sans-serif, Normal';font-variant-ligatures:normal;font-variant-caps:normal;font-variant-numeric:normal;font-variant-east-asian:normal">&quot;event1_event_type&quot; event</tspan></text>
  <text
     xml:space="preserve"
     style="font-style:normal;font-variant:normal;font-weight:normal;font-stretch:normal;font-size:13.3333px;line-height:1.25;font-family:sans-serif;-inkscape-font-specification:'sans-serif, Normal';font-variant-ligatures:normal;font-variant-caps:normal;font-variant-numeric:normal;font-variant-east-asian:normal;display:inline;opacity:0.84"
     x="424.94296"
     y="446.89291"
     id="text13526-4-3-8"><tspan
       sodipodi:role="line"
       id="tspan13524-3-3-8"
       x="424.94296"
       y="446.89291"
       style="font-style:normal;font-variant:normal;font-weight:normal;font-stretch:normal;font-size:14.6667px;font-family:sans-serif;-inkscape-font-specification:'sans-serif, Normal';font-variant-ligatures:normal;font-variant-caps:normal;font-variant-numeric:normal;font-variant-east-asian:normal">&quot;event2_event_type&quot; event</tspan></text>
  <text
     xml:space="preserve"
     style="font-style:normal;font-variant:normal;font-weight:normal;font-stretch:normal;font-size:13.3333px;line-height:1.25;font-family:sans-serif;-inkscape-font-specification:'sans-serif, Normal';font-variant-ligatures:normal;font-variant-caps:normal;font-variant-numeric:normal;font-variant-east-asian:normal;display:inline;opacity:0.84"
     x="451.8501"
     y="399.46552"
     id="text13526-4-0-8"><tspan
       sodipodi:role="line"
       id="tspan13524-3-4-9"
       x="451.8501"
       y="399.46552"
       style="font-style:normal;font-variant:normal;font-weight:normal;font-stretch:normal;font-size:14.6667px;font-family:sans-serif;-inkscape-font-specification:'sans-serif, Normal';font-variant-ligatures:normal;font-variant-caps:normal;font-variant-numeric:normal;font-variant-east-asian:normal">-&gt; execute &quot;event1&quot; actions</tspan></text>
  <text
     xml:space="preserve"
     style="font-style:normal;font-variant:normal;font-weight:normal;font-stretch:normal;font-size:13.3333px;line-height:1.25;font-family:sans-serif;-inkscape-font-specification:'sans-serif, Normal';font-variant-ligatures:normal;font-variant-caps:normal;font-variant-numeric:normal;font-variant-east-asian:normal;display:inline;opacity:0.84"
     x="451.8501"
     y="475.29443"
     id="text13526-4-0-8-6"><tspan
       sodipodi:role="line"
       id="tspan13524-3-4-9-4"
       x="451.8501"
       y="475.29443"
       style="font-style:normal;font-variant:normal;font-weight:normal;font-stretch:normal;font-size:14.6667px;font-family:sans-serif;-inkscape-font-specification:'sans-serif, Normal';font-variant-ligatures:normal;font-variant-caps:normal;font-variant-numeric:normal;font-variant-east-asian:normal">-&gt; execute &quot;event2&quot; actions</tspan></text>
  <path
     style="display:inline;fill:none;stroke:#000000;stroke-width:1.8;stroke-linecap:butt;stroke-linejoin:miter;stroke-miterlimit:4;stroke-dasharray:none;stroke-opacity:1;marker-start:url(#Arrow1Lstart-3)"
     d="m 342.3485,442.87368 67.06435,0.26442"
     id="path4007-3" />
</svg>
